<svg width="324" height="85" viewBox="0 0 324 85" fill="none" xmlns="http://www.w3.org/2000/svg">
<path fill-rule="evenodd" clip-rule="evenodd" d="M180.426 6.00043L138 48.4268L137.293 47.7197L179.719 5.29332L180.426 6.00043Z" fill="#2F2F2F" style="fill:#2F2F2F;fill:color(display-p3 0.1833 0.1833 0.1833);fill-opacity:1;"/>
<path d="M188.959 14.9997V6.27246H194.371V7.40598H190.276V10.0651H193.983V11.1943H190.276V14.9997H188.959Z" fill="#2F2F2F" style="fill:#2F2F2F;fill:color(display-p3 0.1833 0.1833 0.1833);fill-opacity:1;"/>
<path d="M197.444 15.1318C196.831 15.1318 196.295 14.9912 195.838 14.71C195.38 14.4287 195.025 14.0352 194.773 13.5296C194.52 13.0239 194.393 12.433 194.393 11.7568C194.393 11.0779 194.52 10.4841 194.773 9.97559C195.025 9.46706 195.38 9.07218 195.838 8.79093C196.295 8.50968 196.831 8.36905 197.444 8.36905C198.058 8.36905 198.594 8.50968 199.051 8.79093C199.508 9.07218 199.863 9.46706 200.116 9.97559C200.369 10.4841 200.496 11.0779 200.496 11.7568C200.496 12.433 200.369 13.0239 200.116 13.5296C199.863 14.0352 199.508 14.4287 199.051 14.71C198.594 14.9912 198.058 15.1318 197.444 15.1318ZM197.449 14.0622C197.846 14.0622 198.176 13.9571 198.437 13.7469C198.699 13.5367 198.892 13.2568 199.017 12.9074C199.145 12.558 199.209 12.173 199.209 11.7526C199.209 11.335 199.145 10.9514 199.017 10.602C198.892 10.2497 198.699 9.96706 198.437 9.75399C198.176 9.54093 197.846 9.43439 197.449 9.43439C197.048 9.43439 196.716 9.54093 196.452 9.75399C196.19 9.96706 195.996 10.2497 195.868 10.602C195.743 10.9514 195.68 11.335 195.68 11.7526C195.68 12.173 195.743 12.558 195.868 12.9074C195.996 13.2568 196.19 13.5367 196.452 13.7469C196.716 13.9571 197.048 14.0622 197.449 14.0622Z" fill="#2F2F2F" style="fill:#2F2F2F;fill:color(display-p3 0.1833 0.1833 0.1833);fill-opacity:1;"/>
<path d="M203.942 17.5906C203.422 17.5906 202.975 17.5225 202.6 17.3861C202.228 17.2497 201.924 17.0693 201.688 16.8449C201.452 16.6205 201.276 16.3747 201.159 16.1077L202.255 15.656C202.331 15.781 202.434 15.9131 202.561 16.0523C202.692 16.1943 202.868 16.3151 203.09 16.4145C203.314 16.5139 203.603 16.5637 203.955 16.5637C204.438 16.5637 204.837 16.4458 205.152 16.21C205.468 15.977 205.625 15.6048 205.625 15.0935V13.8066H205.544C205.468 13.9458 205.357 14.1006 205.212 14.271C205.07 14.4415 204.874 14.5892 204.624 14.7142C204.374 14.8392 204.049 14.9017 203.648 14.9017C203.131 14.9017 202.665 14.781 202.25 14.5395C201.838 14.2952 201.512 13.9358 201.27 13.4614C201.032 12.9841 200.912 12.3975 200.912 11.7014C200.912 11.0054 201.03 10.4088 201.266 9.91167C201.505 9.41451 201.831 9.03382 202.246 8.76962C202.661 8.50257 203.131 8.36905 203.657 8.36905C204.063 8.36905 204.391 8.43723 204.641 8.5736C204.891 8.70712 205.086 8.86337 205.225 9.04235C205.367 9.22132 205.476 9.379 205.553 9.51536H205.647V8.45428H206.895V15.1446C206.895 15.7071 206.765 16.1688 206.503 16.5296C206.242 16.8904 205.888 17.1574 205.442 17.3307C204.999 17.504 204.499 17.5906 203.942 17.5906ZM203.929 13.8449C204.296 13.8449 204.605 13.7597 204.858 13.5892C205.114 13.4159 205.307 13.1688 205.438 12.8477C205.571 12.5239 205.638 12.1361 205.638 11.6844C205.638 11.2441 205.573 10.8563 205.442 10.521C205.311 10.1858 205.12 9.92445 204.867 9.73695C204.614 9.54661 204.301 9.45144 203.929 9.45144C203.546 9.45144 203.226 9.55087 202.971 9.74973C202.715 9.94576 202.522 10.2128 202.391 10.5509C202.263 10.8889 202.199 11.2668 202.199 11.6844C202.199 12.1134 202.265 12.4898 202.395 12.8137C202.526 13.1375 202.719 13.3904 202.975 13.5722C203.233 13.754 203.551 13.8449 203.929 13.8449Z" fill="#2F2F2F" style="fill:#2F2F2F;fill:color(display-p3 0.1833 0.1833 0.1833);fill-opacity:1;"/>
<path d="M210.628 17.5906C210.108 17.5906 209.661 17.5225 209.286 17.3861C208.914 17.2497 208.61 17.0693 208.374 16.8449C208.138 16.6205 207.962 16.3747 207.846 16.1077L208.941 15.656C209.018 15.781 209.12 15.9131 209.248 16.0523C209.378 16.1943 209.554 16.3151 209.776 16.4145C210.001 16.5139 210.289 16.5637 210.641 16.5637C211.124 16.5637 211.523 16.4458 211.839 16.21C212.154 15.977 212.312 15.6048 212.312 15.0935V13.8066H212.231C212.154 13.9458 212.043 14.1006 211.898 14.271C211.756 14.4415 211.56 14.5892 211.31 14.7142C211.06 14.8392 210.735 14.9017 210.334 14.9017C209.817 14.9017 209.351 14.781 208.937 14.5395C208.525 14.2952 208.198 13.9358 207.956 13.4614C207.718 12.9841 207.599 12.3975 207.599 11.7014C207.599 11.0054 207.716 10.4088 207.952 9.91167C208.191 9.41451 208.518 9.03382 208.932 8.76962C209.347 8.50257 209.817 8.36905 210.343 8.36905C210.749 8.36905 211.077 8.43723 211.327 8.5736C211.577 8.70712 211.772 8.86337 211.911 9.04235C212.053 9.22132 212.162 9.379 212.239 9.51536H212.333V8.45428H213.581V15.1446C213.581 15.7071 213.451 16.1688 213.189 16.5296C212.928 16.8904 212.574 17.1574 212.128 17.3307C211.685 17.504 211.185 17.5906 210.628 17.5906ZM210.616 13.8449C210.982 13.8449 211.292 13.7597 211.545 13.5892C211.8 13.4159 211.993 13.1688 212.124 12.8477C212.258 12.5239 212.324 12.1361 212.324 11.6844C212.324 11.2441 212.259 10.8563 212.128 10.521C211.998 10.1858 211.806 9.92445 211.553 9.73695C211.3 9.54661 210.988 9.45144 210.616 9.45144C210.232 9.45144 209.912 9.55087 209.657 9.74973C209.401 9.94576 209.208 10.2128 209.077 10.5509C208.949 10.8889 208.885 11.2668 208.885 11.6844C208.885 12.1134 208.951 12.4898 209.081 12.8137C209.212 13.1375 209.405 13.3904 209.661 13.5722C209.92 13.754 210.238 13.8449 210.616 13.8449Z" fill="#2F2F2F" style="fill:#2F2F2F;fill:color(display-p3 0.1833 0.1833 0.1833);fill-opacity:1;"/>
<path d="M217.128 6.27246H218.726L221.505 13.0566H221.607L224.385 6.27246H225.983V14.9997H224.731V8.68439H224.65L222.076 14.9869H221.036L218.462 8.68013H218.381V14.9997H217.128V6.27246Z" fill="#2F2F2F" style="fill:#2F2F2F;fill:color(display-p3 0.1833 0.1833 0.1833);fill-opacity:1;"/>
<path d="M231.222 12.2852V8.45428H232.5V14.9997H231.247V13.8662H231.179C231.029 14.2156 230.787 14.5068 230.455 14.7398C230.125 14.9699 229.715 15.085 229.223 15.085C228.803 15.085 228.431 14.9926 228.107 14.808C227.786 14.6205 227.533 14.3435 227.348 13.977C227.167 13.6105 227.076 13.1574 227.076 12.6176V8.45428H228.35V12.4642C228.35 12.9102 228.473 13.2654 228.72 13.5296C228.968 13.7938 229.289 13.9259 229.684 13.9259C229.922 13.9259 230.159 13.8662 230.395 13.7469C230.634 13.6276 230.831 13.4472 230.988 13.2057C231.147 12.9642 231.225 12.6574 231.222 12.2852Z" fill="#2F2F2F" style="fill:#2F2F2F;fill:color(display-p3 0.1833 0.1833 0.1833);fill-opacity:1;"/>
<path d="M238.397 10.0523L237.242 10.2568C237.194 10.1091 237.117 9.96848 237.012 9.83496C236.91 9.70144 236.771 9.59206 236.595 9.50684C236.418 9.42161 236.198 9.37899 235.934 9.37899C235.573 9.37899 235.272 9.45996 235.031 9.62189C234.789 9.78098 234.668 9.98695 234.668 10.2398C234.668 10.4585 234.749 10.6347 234.911 10.7682C235.073 10.9017 235.335 11.0111 235.695 11.0963L236.735 11.335C237.337 11.4742 237.786 11.6887 238.082 11.9784C238.377 12.2682 238.525 12.6446 238.525 13.1077C238.525 13.4997 238.411 13.8492 238.184 14.156C237.96 14.46 237.646 14.6986 237.242 14.8719C236.842 15.0452 236.377 15.1318 235.849 15.1318C235.116 15.1318 234.518 14.9756 234.055 14.6631C233.592 14.3477 233.308 13.9003 233.203 13.3208L234.434 13.1333C234.511 13.4543 234.668 13.6972 234.907 13.8619C235.146 14.0239 235.457 14.1048 235.84 14.1048C236.258 14.1048 236.592 14.0182 236.842 13.8449C237.092 13.6688 237.217 13.4543 237.217 13.2014C237.217 12.9969 237.14 12.825 236.987 12.6858C236.836 12.5466 236.605 12.4415 236.292 12.3705L235.184 12.1276C234.573 11.9884 234.122 11.7668 233.829 11.4628C233.539 11.1588 233.394 10.7739 233.394 10.308C233.394 9.92161 233.502 9.58354 233.718 9.29377C233.934 9.004 234.232 8.77814 234.613 8.61621C234.994 8.45144 235.43 8.36905 235.921 8.36905C236.629 8.36905 237.185 8.52246 237.592 8.82928C237.998 9.13326 238.266 9.54093 238.397 10.0523Z" fill="#2F2F2F" style="fill:#2F2F2F;fill:color(display-p3 0.1833 0.1833 0.1833);fill-opacity:1;"/>
<path d="M242.027 15.1318C241.382 15.1318 240.827 14.9941 240.361 14.7185C239.898 14.4401 239.54 14.0494 239.287 13.5466C239.037 13.0409 238.912 12.4486 238.912 11.7696C238.912 11.0992 239.037 10.5083 239.287 9.99689C239.54 9.48553 239.892 9.08638 240.344 8.79945C240.798 8.51252 241.329 8.36905 241.937 8.36905C242.307 8.36905 242.665 8.43013 243.011 8.55229C243.358 8.67445 243.669 8.86621 243.945 9.12757C244.22 9.38894 244.437 9.72843 244.597 10.146C244.756 10.5608 244.835 11.0651 244.835 11.6588V12.1105H239.632V11.156H243.587C243.587 10.8208 243.518 10.5239 243.382 10.2654C243.246 10.004 243.054 9.79803 242.807 9.64746C242.562 9.49689 242.276 9.42161 241.946 9.42161C241.588 9.42161 241.276 9.50968 241.008 9.68581C240.744 9.85911 240.54 10.0864 240.395 10.3676C240.253 10.646 240.182 10.9486 240.182 11.2753V12.021C240.182 12.4585 240.258 12.8307 240.412 13.1375C240.568 13.4443 240.785 13.6787 241.064 13.8406C241.342 13.9997 241.668 14.0793 242.04 14.0793C242.281 14.0793 242.501 14.0452 242.7 13.977C242.899 13.906 243.071 13.8009 243.216 13.6617C243.361 13.5225 243.472 13.3506 243.548 13.146L244.754 13.3634C244.658 13.7185 244.484 14.0296 244.234 14.2966C243.987 14.5608 243.676 14.7668 243.301 14.9145C242.929 15.0594 242.504 15.1318 242.027 15.1318Z" fill="#2F2F2F" style="fill:#2F2F2F;fill:color(display-p3 0.1833 0.1833 0.1833);fill-opacity:1;"/>
<path d="M249.675 12.2852V8.45428H250.954V14.9997H249.701V13.8662H249.633C249.482 14.2156 249.241 14.5068 248.908 14.7398C248.579 14.9699 248.168 15.085 247.677 15.085C247.256 15.085 246.884 14.9926 246.56 14.808C246.239 14.6205 245.986 14.3435 245.802 13.977C245.62 13.6105 245.529 13.1574 245.529 12.6176V8.45428H246.803V12.4642C246.803 12.9102 246.927 13.2654 247.174 13.5296C247.421 13.7938 247.742 13.9259 248.137 13.9259C248.375 13.9259 248.613 13.8662 248.848 13.7469C249.087 13.6276 249.285 13.4472 249.441 13.2057C249.6 12.9642 249.678 12.6574 249.675 12.2852Z" fill="#2F2F2F" style="fill:#2F2F2F;fill:color(display-p3 0.1833 0.1833 0.1833);fill-opacity:1;"/>
<path d="M251.946 14.9997V8.45428H253.169V9.51962H253.25C253.386 9.15882 253.609 8.87757 253.919 8.67587C254.228 8.47132 254.599 8.36905 255.031 8.36905C255.468 8.36905 255.835 8.47132 256.13 8.67587C256.429 8.88042 256.649 9.16167 256.791 9.51962H256.859C257.015 9.17019 257.264 8.89178 257.605 8.68439C257.946 8.47417 258.352 8.36905 258.823 8.36905C259.417 8.36905 259.902 8.55513 260.277 8.92729C260.654 9.29945 260.843 9.86053 260.843 10.6105V14.9997H259.569V10.7298C259.569 10.2867 259.448 9.96564 259.207 9.76678C258.965 9.56792 258.677 9.46848 258.342 9.46848C257.927 9.46848 257.605 9.59632 257.375 9.85201C257.144 10.1048 257.029 10.4301 257.029 10.8279V14.9997H255.76V10.6489C255.76 10.2938 255.649 10.0083 255.427 9.79235C255.206 9.57644 254.917 9.46848 254.562 9.46848C254.321 9.46848 254.098 9.5324 253.893 9.66024C253.691 9.78524 253.528 9.95996 253.403 10.1844C253.281 10.4088 253.22 10.6688 253.22 10.9642V14.9997H251.946Z" fill="#2F2F2F" style="fill:#2F2F2F;fill:color(display-p3 0.1833 0.1833 0.1833);fill-opacity:1;"/>
<path d="M189.696 36.9999H188.298L191.439 28.2726H192.96L196.101 36.9999H194.703L192.236 29.8579H192.168L189.696 36.9999ZM189.93 33.5823H194.464V34.6903H189.93V33.5823Z" fill="#2F2F2F" style="fill:#2F2F2F;fill:color(display-p3 0.1833 0.1833 0.1833);fill-opacity:1;"/>
<path d="M196.539 36.9999V30.4545H197.77V31.4942H197.839C197.958 31.142 198.168 30.865 198.469 30.6633C198.773 30.4587 199.117 30.3564 199.501 30.3564C199.58 30.3564 199.674 30.3593 199.782 30.365C199.893 30.3707 199.979 30.3778 200.042 30.3863V31.605C199.991 31.5908 199.9 31.5752 199.769 31.5582C199.638 31.5383 199.508 31.5283 199.377 31.5283C199.076 31.5283 198.807 31.5922 198.572 31.7201C198.339 31.8451 198.154 32.0198 198.018 32.2442C197.881 32.4658 197.813 32.7187 197.813 33.0028V36.9999H196.539Z" fill="#2F2F2F" style="fill:#2F2F2F;fill:color(display-p3 0.1833 0.1833 0.1833);fill-opacity:1;"/>
<path d="M203.866 30.4545V31.4772H200.291V30.4545H203.866ZM201.25 28.8863H202.524V35.078C202.524 35.3252 202.561 35.5113 202.635 35.6363C202.709 35.7584 202.804 35.8422 202.92 35.8877C203.04 35.9303 203.169 35.9516 203.308 35.9516C203.41 35.9516 203.5 35.9445 203.577 35.9303C203.653 35.9161 203.713 35.9047 203.756 35.8962L203.986 36.9488C203.912 36.9772 203.807 37.0056 203.67 37.034C203.534 37.0653 203.364 37.0823 203.159 37.0851C202.824 37.0908 202.511 37.0312 202.222 36.9062C201.932 36.7812 201.697 36.588 201.518 36.3266C201.339 36.0653 201.25 35.7371 201.25 35.3422V28.8863Z" fill="#2F2F2F" style="fill:#2F2F2F;fill:color(display-p3 0.1833 0.1833 0.1833);fill-opacity:1;"/>
<path d="M205.971 33.1135V36.9999H204.697V28.2726H205.954V31.5198H206.035C206.188 31.1675 206.422 30.8877 206.738 30.6803C207.053 30.4729 207.465 30.3692 207.974 30.3692C208.422 30.3692 208.814 30.4616 209.15 30.6462C209.488 30.8309 209.749 31.1064 209.934 31.4729C210.121 31.8366 210.215 32.2911 210.215 32.8366V36.9999H208.941V32.99C208.941 32.5099 208.817 32.1377 208.57 31.8735C208.323 31.6064 207.979 31.4729 207.539 31.4729C207.238 31.4729 206.968 31.5368 206.729 31.6647C206.493 31.7925 206.307 31.98 206.171 32.2272C206.037 32.4715 205.971 32.767 205.971 33.1135Z" fill="#2F2F2F" style="fill:#2F2F2F;fill:color(display-p3 0.1833 0.1833 0.1833);fill-opacity:1;"/>
<path d="M215.342 34.2854V30.4545H216.62V36.9999H215.367V35.8664H215.299C215.148 36.2158 214.907 36.507 214.575 36.74C214.245 36.9701 213.834 37.0851 213.343 37.0851C212.923 37.0851 212.55 36.9928 212.227 36.8082C211.905 36.6207 211.653 36.3437 211.468 35.9772C211.286 35.6107 211.195 35.1576 211.195 34.6178V30.4545H212.469V34.4644C212.469 34.9104 212.593 35.2655 212.84 35.5297C213.087 35.7939 213.408 35.926 213.803 35.926C214.042 35.926 214.279 35.8664 214.515 35.7471C214.754 35.6278 214.951 35.4474 215.107 35.2059C215.266 34.9644 215.344 34.6576 215.342 34.2854Z" fill="#2F2F2F" style="fill:#2F2F2F;fill:color(display-p3 0.1833 0.1833 0.1833);fill-opacity:1;"/>
<path d="M217.612 36.9999V30.4545H218.844V31.4942H218.912C219.031 31.142 219.241 30.865 219.542 30.6633C219.846 30.4587 220.19 30.3564 220.574 30.3564C220.653 30.3564 220.747 30.3593 220.855 30.365C220.966 30.3707 221.052 30.3778 221.115 30.3863V31.605C221.064 31.5908 220.973 31.5752 220.842 31.5582C220.711 31.5383 220.581 31.5283 220.45 31.5283C220.149 31.5283 219.88 31.5922 219.645 31.7201C219.412 31.8451 219.227 32.0198 219.091 32.2442C218.954 32.4658 218.886 32.7187 218.886 33.0028V36.9999H217.612Z" fill="#2F2F2F" style="fill:#2F2F2F;fill:color(display-p3 0.1833 0.1833 0.1833);fill-opacity:1;"/>
<path d="M224.056 28.2726H225.654L228.432 35.0567H228.534L231.313 28.2726H232.911V36.9999H231.658V30.6846H231.577L229.003 36.9871H227.963L225.389 30.6803H225.308V36.9999H224.056V28.2726Z" fill="#2F2F2F" style="fill:#2F2F2F;fill:color(display-p3 0.1833 0.1833 0.1833);fill-opacity:1;"/>
<path d="M234.842 37.0809C234.609 37.0809 234.409 36.9985 234.241 36.8337C234.074 36.6661 233.99 36.4644 233.99 36.2286C233.99 35.9956 234.074 35.7968 234.241 35.632C234.409 35.4644 234.609 35.3806 234.842 35.3806C235.075 35.3806 235.275 35.4644 235.443 35.632C235.611 35.7968 235.695 35.9956 235.695 36.2286C235.695 36.3849 235.655 36.5283 235.575 36.659C235.499 36.7868 235.396 36.8891 235.268 36.9658C235.141 37.0425 234.999 37.0809 234.842 37.0809Z" fill="#2F2F2F" style="fill:#2F2F2F;fill:color(display-p3 0.1833 0.1833 0.1833);fill-opacity:1;"/>
<path d="M243.859 30.5653C243.813 30.1618 243.626 29.8493 243.296 29.6278C242.967 29.4033 242.552 29.2911 242.052 29.2911C241.694 29.2911 241.384 29.3479 241.123 29.4616C240.861 29.5724 240.658 29.7258 240.513 29.9218C240.371 30.115 240.3 30.3351 240.3 30.5823C240.3 30.7897 240.349 30.9687 240.445 31.1192C240.545 31.2698 240.674 31.3962 240.833 31.4985C240.995 31.5979 241.168 31.6817 241.353 31.7499C241.538 31.8153 241.715 31.8692 241.886 31.9118L242.738 32.1334C243.016 32.2016 243.302 32.2939 243.594 32.4104C243.887 32.5269 244.158 32.6803 244.408 32.8707C244.658 33.061 244.86 33.2968 245.013 33.578C245.17 33.8593 245.248 34.1959 245.248 34.588C245.248 35.0823 245.12 35.5212 244.864 35.9047C244.611 36.2883 244.244 36.5908 243.761 36.8124C243.28 37.034 242.699 37.1448 242.018 37.1448C241.364 37.1448 240.799 37.0411 240.322 36.8337C239.844 36.6263 239.471 36.3323 239.201 35.9516C238.931 35.5681 238.782 35.1135 238.753 34.588H240.074C240.1 34.9033 240.202 35.1661 240.381 35.3763C240.563 35.5837 240.795 35.7385 241.076 35.8408C241.36 35.9403 241.671 35.99 242.009 35.99C242.381 35.99 242.712 35.9317 243.002 35.8153C243.295 35.6959 243.525 35.5312 243.692 35.3209C243.86 35.1079 243.944 34.8593 243.944 34.5752C243.944 34.3167 243.87 34.105 243.722 33.9403C243.577 33.7755 243.38 33.6391 243.13 33.5312C242.883 33.4232 242.603 33.328 242.29 33.2457L241.259 32.9644C240.56 32.7741 240.006 32.4942 239.597 32.1249C239.191 31.7556 238.988 31.267 238.988 30.659C238.988 30.1562 239.124 29.7172 239.397 29.3422C239.67 28.9672 240.039 28.676 240.505 28.4687C240.971 28.2584 241.496 28.1533 242.082 28.1533C242.672 28.1533 243.194 28.257 243.646 28.4644C244.1 28.6718 244.458 28.9573 244.719 29.3209C244.981 29.6817 245.117 30.0965 245.128 30.5653H243.859Z" fill="#2F2F2F" style="fill:#2F2F2F;fill:color(display-p3 0.1833 0.1833 0.1833);fill-opacity:1;"/>
<path d="M247.904 37.1448C247.489 37.1448 247.114 37.0681 246.779 36.9147C246.444 36.7584 246.178 36.5326 245.982 36.2371C245.789 35.9417 245.692 35.5795 245.692 35.1505C245.692 34.7812 245.763 34.4772 245.905 34.2385C246.047 33.9999 246.239 33.811 246.481 33.6718C246.722 33.5326 246.992 33.4275 247.29 33.3564C247.589 33.2854 247.892 33.2314 248.202 33.1945C248.594 33.1491 248.912 33.1121 249.157 33.0837C249.401 33.0525 249.579 33.0028 249.689 32.9346C249.8 32.8664 249.856 32.7556 249.856 32.6022V32.5724C249.856 32.2002 249.75 31.9118 249.54 31.7073C249.333 31.5028 249.023 31.4005 248.611 31.4005C248.182 31.4005 247.844 31.4957 247.597 31.686C247.353 31.8735 247.184 32.0823 247.09 32.3124L245.892 32.0397C246.035 31.642 246.242 31.3209 246.515 31.0766C246.79 30.8295 247.107 30.6505 247.465 30.5397C247.823 30.426 248.199 30.3692 248.594 30.3692C248.856 30.3692 249.133 30.4005 249.425 30.463C249.721 30.5226 249.996 30.6334 250.252 30.7954C250.51 30.9573 250.722 31.1888 250.887 31.49C251.052 31.7883 251.134 32.176 251.134 32.6533V36.9999H249.89V36.105H249.839C249.756 36.2698 249.633 36.4317 249.468 36.5908C249.303 36.7499 249.091 36.882 248.833 36.9871C248.574 37.0922 248.265 37.1448 247.904 37.1448ZM248.181 36.1221C248.533 36.1221 248.834 36.0525 249.084 35.9133C249.337 35.7741 249.529 35.5922 249.66 35.3678C249.793 35.1405 249.86 34.8976 249.86 34.6391V33.7954C249.814 33.8408 249.726 33.8834 249.596 33.9232C249.468 33.9601 249.321 33.9928 249.157 34.0212C248.992 34.0468 248.831 34.0709 248.675 34.0937C248.519 34.1135 248.388 34.1306 248.283 34.1448C248.036 34.176 247.81 34.2286 247.606 34.3025C247.404 34.3763 247.242 34.4829 247.12 34.6221C247 34.7584 246.941 34.9403 246.941 35.1675C246.941 35.4829 247.057 35.7215 247.29 35.8834C247.523 36.0425 247.82 36.1221 248.181 36.1221Z" fill="#2F2F2F" style="fill:#2F2F2F;fill:color(display-p3 0.1833 0.1833 0.1833);fill-opacity:1;"/>
<path d="M254.868 37.132C254.235 37.132 253.689 36.9885 253.232 36.7016C252.777 36.4118 252.428 36.0127 252.183 35.5042C251.939 34.9956 251.817 34.4133 251.817 33.757C251.817 33.0922 251.942 32.5056 252.192 31.9971C252.442 31.4857 252.794 31.0866 253.249 30.7996C253.703 30.5127 254.239 30.3692 254.855 30.3692C255.353 30.3692 255.796 30.4616 256.185 30.6462C256.574 30.828 256.888 31.0837 257.127 31.4133C257.368 31.7428 257.512 32.1278 257.557 32.5681H256.317C256.249 32.2613 256.093 31.9971 255.848 31.7755C255.607 31.5539 255.283 31.4431 254.877 31.4431C254.522 31.4431 254.21 31.5368 253.943 31.7243C253.679 31.909 253.473 32.1732 253.326 32.517C253.178 32.8579 253.104 33.2613 253.104 33.7272C253.104 34.2045 253.176 34.6164 253.321 34.963C253.466 35.3096 253.671 35.578 253.935 35.7684C254.202 35.9587 254.516 36.0539 254.877 36.0539C255.118 36.0539 255.337 36.0099 255.533 35.9218C255.732 35.8309 255.898 35.7016 256.032 35.534C256.168 35.3664 256.263 35.1647 256.317 34.9289H257.557C257.512 35.3522 257.374 35.73 257.144 36.0624C256.914 36.3948 256.605 36.6562 256.219 36.8465C255.835 37.0368 255.385 37.132 254.868 37.132Z" fill="#2F2F2F" style="fill:#2F2F2F;fill:color(display-p3 0.1833 0.1833 0.1833);fill-opacity:1;"/>
<path d="M259.372 34.7797L259.363 33.2243H259.585L262.193 30.4545H263.718L260.744 33.6079H260.543L259.372 34.7797ZM258.2 36.9999V28.2726H259.474V36.9999H258.2ZM262.333 36.9999L259.989 33.8891L260.867 32.9985L263.897 36.9999H262.333Z" fill="#2F2F2F" style="fill:#2F2F2F;fill:color(display-p3 0.1833 0.1833 0.1833);fill-opacity:1;"/>
<path d="M265.433 28.2726V36.9999H264.159V28.2726H265.433Z" fill="#2F2F2F" style="fill:#2F2F2F;fill:color(display-p3 0.1833 0.1833 0.1833);fill-opacity:1;"/>
<path d="M269.249 37.132C268.604 37.132 268.048 36.9942 267.582 36.7187C267.119 36.4403 266.761 36.0496 266.509 35.5468C266.259 35.0411 266.134 34.4488 266.134 33.7698C266.134 33.0993 266.259 32.5084 266.509 31.9971C266.761 31.4857 267.114 31.0866 267.565 30.7996C268.02 30.5127 268.551 30.3692 269.159 30.3692C269.528 30.3692 269.886 30.4303 270.233 30.5525C270.58 30.6746 270.891 30.8664 271.166 31.1278C271.442 31.3891 271.659 31.7286 271.818 32.1462C271.977 32.561 272.057 33.0653 272.057 33.659V34.1107H266.854V33.1562H270.808C270.808 32.8209 270.74 32.5241 270.604 32.2655C270.467 32.0042 270.276 31.7982 270.028 31.6476C269.784 31.4971 269.497 31.4218 269.168 31.4218C268.81 31.4218 268.497 31.5099 268.23 31.686C267.966 31.8593 267.761 32.0866 267.617 32.3678C267.474 32.6462 267.403 32.9488 267.403 33.2755V34.0212C267.403 34.4587 267.48 34.8309 267.634 35.1377C267.79 35.4445 268.007 35.6789 268.286 35.8408C268.564 35.9999 268.889 36.0795 269.261 36.0795C269.503 36.0795 269.723 36.0454 269.922 35.9772C270.121 35.9062 270.293 35.801 270.438 35.6618C270.582 35.5226 270.693 35.3508 270.77 35.1462L271.976 35.3635C271.879 35.7187 271.706 36.0297 271.456 36.2968C271.209 36.561 270.898 36.767 270.523 36.9147C270.151 37.0596 269.726 37.132 269.249 37.132Z" fill="#2F2F2F" style="fill:#2F2F2F;fill:color(display-p3 0.1833 0.1833 0.1833);fill-opacity:1;"/>
<path d="M272.751 36.9999V30.4545H273.982V31.4942H274.05C274.17 31.142 274.38 30.865 274.681 30.6633C274.985 30.4587 275.329 30.3564 275.712 30.3564C275.792 30.3564 275.886 30.3593 275.993 30.365C276.104 30.3707 276.191 30.3778 276.253 30.3863V31.605C276.202 31.5908 276.111 31.5752 275.981 31.5582C275.85 31.5383 275.719 31.5283 275.589 31.5283C275.288 31.5283 275.019 31.5922 274.783 31.7201C274.55 31.8451 274.366 32.0198 274.229 32.2442C274.093 32.4658 274.025 32.7187 274.025 33.0028V36.9999H272.751Z" fill="#2F2F2F" style="fill:#2F2F2F;fill:color(display-p3 0.1833 0.1833 0.1833);fill-opacity:1;"/>
<path d="M279.194 28.2726H280.792L283.571 35.0567H283.673L286.451 28.2726H288.049V36.9999H286.796V30.6846H286.715L284.142 36.9871H283.102L280.528 30.6803H280.447V36.9999H279.194V28.2726Z" fill="#2F2F2F" style="fill:#2F2F2F;fill:color(display-p3 0.1833 0.1833 0.1833);fill-opacity:1;"/>
<path d="M293.288 34.2854V30.4545H294.566V36.9999H293.313V35.8664H293.245C293.094 36.2158 292.853 36.507 292.521 36.74C292.191 36.9701 291.781 37.0851 291.289 37.0851C290.869 37.0851 290.496 36.9928 290.173 36.8082C289.852 36.6207 289.599 36.3437 289.414 35.9772C289.232 35.6107 289.141 35.1576 289.141 34.6178V30.4545H290.416V34.4644C290.416 34.9104 290.539 35.2655 290.786 35.5297C291.033 35.7939 291.354 35.926 291.749 35.926C291.988 35.926 292.225 35.8664 292.461 35.7471C292.7 35.6278 292.897 35.4474 293.053 35.2059C293.212 34.9644 293.291 34.6576 293.288 34.2854Z" fill="#2F2F2F" style="fill:#2F2F2F;fill:color(display-p3 0.1833 0.1833 0.1833);fill-opacity:1;"/>
<path d="M300.463 32.0525L299.308 32.257C299.26 32.1093 299.183 31.9687 299.078 31.8351C298.976 31.7016 298.836 31.5922 298.66 31.507C298.484 31.4218 298.264 31.3792 298 31.3792C297.639 31.3792 297.338 31.4601 297.096 31.6221C296.855 31.7812 296.734 31.9871 296.734 32.24C296.734 32.4587 296.815 32.6349 296.977 32.7684C297.139 32.9019 297.4 33.0113 297.761 33.0965L298.801 33.3351C299.403 33.4743 299.852 33.6888 300.148 33.9786C300.443 34.2684 300.591 34.6448 300.591 35.1079C300.591 35.4999 300.477 35.8493 300.25 36.1562C300.025 36.4601 299.711 36.6988 299.308 36.8721C298.908 37.0454 298.443 37.132 297.915 37.132C297.182 37.132 296.584 36.9758 296.121 36.6633C295.658 36.3479 295.373 35.9005 295.268 35.3209L296.5 35.1334C296.577 35.4545 296.734 35.6974 296.973 35.8621C297.211 36.0241 297.523 36.105 297.906 36.105C298.324 36.105 298.658 36.0184 298.908 35.8451C299.158 35.6689 299.283 35.4545 299.283 35.2016C299.283 34.9971 299.206 34.8252 299.052 34.686C298.902 34.5468 298.67 34.4417 298.358 34.3707L297.25 34.1278C296.639 33.9885 296.187 33.767 295.895 33.463C295.605 33.159 295.46 32.7741 295.46 32.3082C295.46 31.9218 295.568 31.5837 295.784 31.2939C296 31.0042 296.298 30.7783 296.679 30.6164C297.06 30.4516 297.496 30.3692 297.987 30.3692C298.694 30.3692 299.251 30.5226 299.658 30.8295C300.064 31.1334 300.332 31.5411 300.463 32.0525Z" fill="#2F2F2F" style="fill:#2F2F2F;fill:color(display-p3 0.1833 0.1833 0.1833);fill-opacity:1;"/>
<path d="M304.093 37.132C303.448 37.132 302.892 36.9942 302.426 36.7187C301.963 36.4403 301.605 36.0496 301.353 35.5468C301.103 35.0411 300.978 34.4488 300.978 33.7698C300.978 33.0993 301.103 32.5084 301.353 31.9971C301.605 31.4857 301.958 31.0866 302.409 30.7996C302.864 30.5127 303.395 30.3692 304.003 30.3692C304.373 30.3692 304.73 30.4303 305.077 30.5525C305.424 30.6746 305.735 30.8664 306.01 31.1278C306.286 31.3891 306.503 31.7286 306.662 32.1462C306.821 32.561 306.901 33.0653 306.901 33.659V34.1107H301.698V33.1562H305.652C305.652 32.8209 305.584 32.5241 305.448 32.2655C305.311 32.0042 305.12 31.7982 304.873 31.6476C304.628 31.4971 304.341 31.4218 304.012 31.4218C303.654 31.4218 303.341 31.5099 303.074 31.686C302.81 31.8593 302.605 32.0866 302.461 32.3678C302.319 32.6462 302.248 32.9488 302.248 33.2755V34.0212C302.248 34.4587 302.324 34.8309 302.478 35.1377C302.634 35.4445 302.851 35.6789 303.13 35.8408C303.408 35.9999 303.733 36.0795 304.105 36.0795C304.347 36.0795 304.567 36.0454 304.766 35.9772C304.965 35.9062 305.137 35.801 305.282 35.6618C305.427 35.5226 305.537 35.3508 305.614 35.1462L306.82 35.3635C306.723 35.7187 306.55 36.0297 306.3 36.2968C306.053 36.561 305.742 36.767 305.367 36.9147C304.995 37.0596 304.57 37.132 304.093 37.132Z" fill="#2F2F2F" style="fill:#2F2F2F;fill:color(display-p3 0.1833 0.1833 0.1833);fill-opacity:1;"/>
<path d="M311.741 34.2854V30.4545H313.019V36.9999H311.767V35.8664H311.698C311.548 36.2158 311.306 36.507 310.974 36.74C310.644 36.9701 310.234 37.0851 309.742 37.0851C309.322 37.0851 308.95 36.9928 308.626 36.8082C308.305 36.6207 308.052 36.3437 307.867 35.9772C307.686 35.6107 307.595 35.1576 307.595 34.6178V30.4545H308.869V34.4644C308.869 34.9104 308.992 35.2655 309.24 35.5297C309.487 35.7939 309.808 35.926 310.203 35.926C310.441 35.926 310.678 35.8664 310.914 35.7471C311.153 35.6278 311.35 35.4474 311.507 35.2059C311.666 34.9644 311.744 34.6576 311.741 34.2854Z" fill="#2F2F2F" style="fill:#2F2F2F;fill:color(display-p3 0.1833 0.1833 0.1833);fill-opacity:1;"/>
<path d="M314.011 36.9999V30.4545H315.234V31.5198H315.315C315.452 31.159 315.675 30.8778 315.984 30.676C316.294 30.4715 316.665 30.3692 317.097 30.3692C317.534 30.3692 317.901 30.4715 318.196 30.676C318.494 30.8806 318.714 31.1618 318.857 31.5198H318.925C319.081 31.1704 319.33 30.892 319.67 30.6846C320.011 30.4743 320.418 30.3692 320.889 30.3692C321.483 30.3692 321.967 30.5553 322.342 30.9275C322.72 31.2996 322.909 31.8607 322.909 32.6107V36.9999H321.635V32.73C321.635 32.2868 321.514 31.9658 321.273 31.767C321.031 31.5681 320.743 31.4687 320.408 31.4687C319.993 31.4687 319.67 31.5965 319.44 31.8522C319.21 32.105 319.095 32.4303 319.095 32.828V36.9999H317.825V32.6491C317.825 32.2939 317.714 32.0084 317.493 31.7925C317.271 31.5766 316.983 31.4687 316.628 31.4687C316.386 31.4687 316.163 31.5326 315.959 31.6604C315.757 31.7854 315.594 31.9601 315.469 32.1846C315.347 32.409 315.286 32.6689 315.286 32.9644V36.9999H314.011Z" fill="#2F2F2F" style="fill:#2F2F2F;fill:color(display-p3 0.1833 0.1833 0.1833);fill-opacity:1;"/>
<path d="M188.959 25.9996V17.2723H192.155C192.774 17.2723 193.287 17.3746 193.693 17.5791C194.099 17.7808 194.403 18.055 194.605 18.4015C194.807 18.7453 194.908 19.1331 194.908 19.5649C194.908 19.9285 194.841 20.2354 194.707 20.4854C194.574 20.7325 194.395 20.9314 194.17 21.0819C193.949 21.2297 193.705 21.3376 193.437 21.4058V21.491C193.727 21.5052 194.01 21.599 194.286 21.7723C194.564 21.9427 194.794 22.1856 194.976 22.501C195.158 22.8163 195.249 23.1998 195.249 23.6515C195.249 24.0976 195.143 24.4981 194.933 24.8532C194.726 25.2055 194.405 25.4854 193.97 25.6927C193.536 25.8973 192.98 25.9996 192.304 25.9996H188.959ZM190.276 24.8703H192.176C192.807 24.8703 193.259 24.7481 193.531 24.5038C193.804 24.2595 193.94 23.9541 193.94 23.5876C193.94 23.3121 193.871 23.0592 193.732 22.8291C193.592 22.599 193.393 22.4157 193.135 22.2794C192.879 22.143 192.575 22.0748 192.223 22.0748H190.276V24.8703ZM190.276 21.0479H192.04C192.335 21.0479 192.601 20.991 192.837 20.8774C193.075 20.7638 193.264 20.6047 193.403 20.4001C193.545 20.1927 193.616 19.9484 193.616 19.6672C193.616 19.3064 193.49 19.0038 193.237 18.7595C192.984 18.5152 192.597 18.393 192.074 18.393H190.276V21.0479Z" fill="#2F2F2F" style="fill:#2F2F2F;fill:color(display-p3 0.1833 0.1833 0.1833);fill-opacity:1;"/>
<path d="M200.134 23.2851V19.4541H201.413V25.9996H200.16V24.866H200.092C199.941 25.2155 199.7 25.5067 199.367 25.7396C199.038 25.9697 198.627 26.0848 198.136 26.0848C197.715 26.0848 197.343 25.9925 197.019 25.8078C196.698 25.6203 196.445 25.3433 196.261 24.9768C196.079 24.6104 195.988 24.1572 195.988 23.6175V19.4541H197.262V23.464C197.262 23.9101 197.386 24.2652 197.633 24.5294C197.88 24.7936 198.201 24.9257 198.596 24.9257C198.835 24.9257 199.072 24.866 199.308 24.7467C199.546 24.6274 199.744 24.447 199.9 24.2055C200.059 23.964 200.137 23.6572 200.134 23.2851Z" fill="#2F2F2F" style="fill:#2F2F2F;fill:color(display-p3 0.1833 0.1833 0.1833);fill-opacity:1;"/>
<path d="M207.31 21.0521L206.155 21.2567C206.107 21.1089 206.03 20.9683 205.925 20.8348C205.822 20.7013 205.683 20.5919 205.507 20.5067C205.331 20.4214 205.111 20.3788 204.847 20.3788C204.486 20.3788 204.185 20.4598 203.943 20.6217C203.702 20.7808 203.581 20.9868 203.581 21.2396C203.581 21.4584 203.662 21.6345 203.824 21.768C203.986 21.9015 204.247 22.0109 204.608 22.0961L205.648 22.3348C206.25 22.474 206.699 22.6885 206.994 22.9782C207.29 23.268 207.437 23.6444 207.437 24.1075C207.437 24.4996 207.324 24.849 207.097 25.1558C206.872 25.4598 206.558 25.6984 206.155 25.8717C205.754 26.045 205.29 26.1317 204.761 26.1317C204.028 26.1317 203.43 25.9754 202.967 25.6629C202.504 25.3476 202.22 24.9001 202.115 24.3206L203.347 24.1331C203.423 24.4541 203.581 24.697 203.82 24.8618C204.058 25.0237 204.369 25.1047 204.753 25.1047C205.17 25.1047 205.504 25.018 205.754 24.8447C206.004 24.6686 206.129 24.4541 206.129 24.2013C206.129 23.9967 206.053 23.8248 205.899 23.6856C205.749 23.5464 205.517 23.4413 205.205 23.3703L204.097 23.1274C203.486 22.9882 203.034 22.7666 202.741 22.4626C202.452 22.1586 202.307 21.7737 202.307 21.3078C202.307 20.9214 202.415 20.5834 202.631 20.2936C202.847 20.0038 203.145 19.778 203.526 19.616C203.906 19.4513 204.342 19.3689 204.834 19.3689C205.541 19.3689 206.098 19.5223 206.504 19.8291C206.91 20.1331 207.179 20.5407 207.31 21.0521Z" fill="#2F2F2F" style="fill:#2F2F2F;fill:color(display-p3 0.1833 0.1833 0.1833);fill-opacity:1;"/>
<path d="M210.876 26.1317C210.242 26.1317 209.697 25.9882 209.239 25.7013C208.785 25.4115 208.435 25.0123 208.191 24.5038C207.947 23.9953 207.824 23.4129 207.824 22.7567C207.824 22.0919 207.949 21.5052 208.199 20.9967C208.449 20.4854 208.802 20.0862 209.256 19.7993C209.711 19.5123 210.246 19.3689 210.863 19.3689C211.36 19.3689 211.803 19.4612 212.192 19.6459C212.581 19.8277 212.895 20.0834 213.134 20.4129C213.376 20.7425 213.519 21.1274 213.564 21.5677H212.324C212.256 21.2609 212.1 20.9967 211.856 20.7751C211.614 20.5535 211.29 20.4427 210.884 20.4427C210.529 20.4427 210.218 20.5365 209.951 20.724C209.687 20.9086 209.481 21.1729 209.333 21.5166C209.185 21.8575 209.111 22.2609 209.111 22.7268C209.111 23.2041 209.184 23.616 209.329 23.9626C209.474 24.3092 209.678 24.5777 209.942 24.768C210.209 24.9584 210.523 25.0535 210.884 25.0535C211.126 25.0535 211.344 25.0095 211.54 24.9214C211.739 24.8305 211.905 24.7013 212.039 24.5336C212.175 24.366 212.27 24.1643 212.324 23.9285H213.564C213.519 24.3518 213.381 24.7297 213.151 25.0621C212.921 25.3944 212.613 25.6558 212.226 25.8461C211.843 26.0365 211.393 26.1317 210.876 26.1317Z" fill="#2F2F2F" style="fill:#2F2F2F;fill:color(display-p3 0.1833 0.1833 0.1833);fill-opacity:1;"/>
<path d="M215.481 22.1132V25.9996H214.207V17.2723H215.464V20.5194H215.545C215.698 20.1672 215.933 19.8873 216.248 19.68C216.564 19.4726 216.975 19.3689 217.484 19.3689C217.933 19.3689 218.325 19.4612 218.66 19.6459C218.998 19.8305 219.26 20.1061 219.444 20.4726C219.632 20.8362 219.725 21.2907 219.725 21.8362V25.9996H218.451V21.9896C218.451 21.5095 218.328 21.1373 218.081 20.8731C217.833 20.6061 217.49 20.4726 217.049 20.4726C216.748 20.4726 216.478 20.5365 216.24 20.6643C216.004 20.7922 215.818 20.9797 215.681 21.2268C215.548 21.4711 215.481 21.7666 215.481 22.1132Z" fill="#2F2F2F" style="fill:#2F2F2F;fill:color(display-p3 0.1833 0.1833 0.1833);fill-opacity:1;"/>
<path d="M224.562 21.7595V22.8632H220.693V21.7595H224.562Z" fill="#2F2F2F" style="fill:#2F2F2F;fill:color(display-p3 0.1833 0.1833 0.1833);fill-opacity:1;"/>
<path d="M225.643 25.9996V17.2723H228.754C229.43 17.2723 229.991 17.3888 230.437 17.6217C230.886 17.8547 231.221 18.1771 231.442 18.589C231.664 18.9981 231.775 19.4711 231.775 20.0081C231.775 20.5422 231.663 21.0123 231.438 21.4186C231.217 21.822 230.881 22.1359 230.432 22.3604C229.986 22.5848 229.425 22.697 228.749 22.697H226.393V21.5635H228.63C229.056 21.5635 229.403 21.5024 229.67 21.3802C229.94 21.2581 230.137 21.0805 230.262 20.8476C230.387 20.6146 230.45 20.3348 230.45 20.0081C230.45 19.6785 230.386 19.393 230.258 19.1515C230.133 18.9101 229.935 18.7254 229.665 18.5976C229.398 18.4669 229.048 18.4015 228.613 18.4015H226.959V25.9996H225.643ZM229.951 22.0621L232.107 25.9996H230.607L228.494 22.0621H229.951Z" fill="#2F2F2F" style="fill:#2F2F2F;fill:color(display-p3 0.1833 0.1833 0.1833);fill-opacity:1;"/>
<path d="M235.294 26.1317C234.649 26.1317 234.094 25.9939 233.628 25.7183C233.165 25.4399 232.807 25.0493 232.554 24.5464C232.304 24.0407 232.179 23.4484 232.179 22.7694C232.179 22.099 232.304 21.5081 232.554 20.9967C232.807 20.4854 233.159 20.0862 233.611 19.7993C234.065 19.5123 234.596 19.3689 235.204 19.3689C235.574 19.3689 235.932 19.43 236.278 19.5521C236.625 19.6743 236.936 19.866 237.211 20.1274C237.487 20.3888 237.704 20.7282 237.863 21.1459C238.022 21.5606 238.102 22.0649 238.102 22.6586V23.1104H232.899V22.1558H236.853C236.853 21.8206 236.785 21.5237 236.649 21.2652C236.513 21.0038 236.321 20.7979 236.074 20.6473C235.829 20.4967 235.542 20.4214 235.213 20.4214C234.855 20.4214 234.542 20.5095 234.275 20.6856C234.011 20.8589 233.807 21.0862 233.662 21.3675C233.52 21.6459 233.449 21.9484 233.449 22.2751V23.0209C233.449 23.4584 233.525 23.8305 233.679 24.1373C233.835 24.4442 234.052 24.6785 234.331 24.8405C234.609 24.9996 234.934 25.0791 235.307 25.0791C235.548 25.0791 235.768 25.045 235.967 24.9768C236.166 24.9058 236.338 24.8007 236.483 24.6615C236.628 24.5223 236.738 24.3504 236.815 24.1459L238.021 24.3632C237.924 24.7183 237.751 25.0294 237.501 25.2964C237.254 25.5606 236.943 25.7666 236.568 25.9143C236.196 26.0592 235.771 26.1317 235.294 26.1317Z" fill="#2F2F2F" style="fill:#2F2F2F;fill:color(display-p3 0.1833 0.1833 0.1833);fill-opacity:1;"/>
<path d="M238.796 25.9996V19.4541H240.07V25.9996H238.796ZM239.439 18.4442C239.218 18.4442 239.027 18.3703 238.868 18.2226C238.712 18.072 238.634 17.893 238.634 17.6856C238.634 17.4754 238.712 17.2964 238.868 17.1487C239.027 16.9981 239.218 16.9229 239.439 16.9229C239.661 16.9229 239.85 16.9981 240.006 17.1487C240.165 17.2964 240.245 17.4754 240.245 17.6856C240.245 17.893 240.165 18.072 240.006 18.2226C239.85 18.3703 239.661 18.4442 239.439 18.4442Z" fill="#2F2F2F" style="fill:#2F2F2F;fill:color(display-p3 0.1833 0.1833 0.1833);fill-opacity:1;"/>
<path d="M245.969 21.0521L244.814 21.2567C244.766 21.1089 244.689 20.9683 244.584 20.8348C244.482 20.7013 244.342 20.5919 244.166 20.5067C243.99 20.4214 243.77 20.3788 243.506 20.3788C243.145 20.3788 242.844 20.4598 242.602 20.6217C242.361 20.7808 242.24 20.9868 242.24 21.2396C242.24 21.4584 242.321 21.6345 242.483 21.768C242.645 21.9015 242.906 22.0109 243.267 22.0961L244.307 22.3348C244.909 22.474 245.358 22.6885 245.654 22.9782C245.949 23.268 246.097 23.6444 246.097 24.1075C246.097 24.4996 245.983 24.849 245.756 25.1558C245.531 25.4598 245.217 25.6984 244.814 25.8717C244.413 26.045 243.949 26.1317 243.421 26.1317C242.688 26.1317 242.09 25.9754 241.627 25.6629C241.163 25.3476 240.879 24.9001 240.774 24.3206L242.006 24.1331C242.082 24.4541 242.24 24.697 242.479 24.8618C242.717 25.0237 243.029 25.1047 243.412 25.1047C243.83 25.1047 244.163 25.018 244.413 24.8447C244.663 24.6686 244.788 24.4541 244.788 24.2013C244.788 23.9967 244.712 23.8248 244.558 23.6856C244.408 23.5464 244.176 23.4413 243.864 23.3703L242.756 23.1274C242.145 22.9882 241.693 22.7666 241.401 22.4626C241.111 22.1586 240.966 21.7737 240.966 21.3078C240.966 20.9214 241.074 20.5834 241.29 20.2936C241.506 20.0038 241.804 19.778 242.185 19.616C242.565 19.4513 243.002 19.3689 243.493 19.3689C244.2 19.3689 244.757 19.5223 245.163 19.8291C245.57 20.1331 245.838 20.5407 245.969 21.0521Z" fill="#2F2F2F" style="fill:#2F2F2F;fill:color(display-p3 0.1833 0.1833 0.1833);fill-opacity:1;"/>
<path d="M246.778 25.9996V19.4541H248.052V25.9996H246.778ZM247.421 18.4442C247.199 18.4442 247.009 18.3703 246.85 18.2226C246.694 18.072 246.616 17.893 246.616 17.6856C246.616 17.4754 246.694 17.2964 246.85 17.1487C247.009 16.9981 247.199 16.9229 247.421 16.9229C247.643 16.9229 247.832 16.9981 247.988 17.1487C248.147 17.2964 248.226 17.4754 248.226 17.6856C248.226 17.893 248.147 18.072 247.988 18.2226C247.832 18.3703 247.643 18.4442 247.421 18.4442Z" fill="#2F2F2F" style="fill:#2F2F2F;fill:color(display-p3 0.1833 0.1833 0.1833);fill-opacity:1;"/>
<path d="M250.32 22.1132V25.9996H249.046V19.4541H250.269V20.5194H250.35C250.5 20.1729 250.736 19.8944 251.057 19.6842C251.381 19.474 251.789 19.3689 252.28 19.3689C252.726 19.3689 253.117 19.4626 253.452 19.6501C253.787 19.8348 254.047 20.1104 254.232 20.4768C254.417 20.8433 254.509 21.2964 254.509 21.8362V25.9996H253.235V21.9896C253.235 21.5152 253.111 21.1444 252.864 20.8774C252.617 20.6075 252.277 20.4726 251.846 20.4726C251.55 20.4726 251.287 20.5365 251.057 20.6643C250.83 20.7922 250.65 20.9797 250.516 21.2268C250.385 21.4711 250.32 21.7666 250.32 22.1132Z" fill="#2F2F2F" style="fill:#2F2F2F;fill:color(display-p3 0.1833 0.1833 0.1833);fill-opacity:1;"/>
<path d="M258.242 28.5905C257.722 28.5905 257.275 28.5223 256.9 28.3859C256.528 28.2496 256.224 28.0692 255.988 27.8447C255.752 27.6203 255.576 27.3746 255.459 27.1075L256.555 26.6558C256.631 26.7808 256.734 26.9129 256.861 27.0521C256.992 27.1942 257.168 27.3149 257.39 27.4143C257.614 27.5138 257.903 27.5635 258.255 27.5635C258.738 27.5635 259.137 27.4456 259.452 27.2098C259.768 26.9768 259.925 26.6047 259.925 26.0933V24.8064H259.844C259.768 24.9456 259.657 25.1004 259.512 25.2709C259.37 25.4413 259.174 25.589 258.924 25.714C258.674 25.839 258.349 25.9015 257.948 25.9015C257.431 25.9015 256.965 25.7808 256.55 25.5393C256.138 25.295 255.812 24.9356 255.57 24.4612C255.332 23.9839 255.212 23.3973 255.212 22.7013C255.212 22.0052 255.33 21.4086 255.566 20.9115C255.805 20.4143 256.131 20.0336 256.546 19.7694C256.961 19.5024 257.431 19.3689 257.957 19.3689C258.363 19.3689 258.691 19.4371 258.941 19.5734C259.191 19.7069 259.386 19.8632 259.525 20.0422C259.667 20.2211 259.776 20.3788 259.853 20.5152H259.947V19.4541H261.195V26.1444C261.195 26.7069 261.065 27.1686 260.803 27.5294C260.542 27.8902 260.188 28.1572 259.742 28.3305C259.299 28.5038 258.799 28.5905 258.242 28.5905ZM258.229 24.8447C258.596 24.8447 258.905 24.7595 259.158 24.589C259.414 24.4158 259.607 24.1686 259.738 23.8476C259.871 23.5237 259.938 23.1359 259.938 22.6842C259.938 22.2439 259.873 21.8561 259.742 21.5209C259.611 21.1856 259.42 20.9243 259.167 20.7368C258.914 20.5464 258.601 20.4513 258.229 20.4513C257.846 20.4513 257.526 20.5507 257.271 20.7496C257.015 20.9456 256.822 21.2126 256.691 21.5507C256.563 21.8888 256.499 22.2666 256.499 22.6842C256.499 23.1132 256.565 23.4896 256.695 23.8135C256.826 24.1373 257.019 24.3902 257.275 24.572C257.533 24.7538 257.851 24.8447 258.229 24.8447Z" fill="#2F2F2F" style="fill:#2F2F2F;fill:color(display-p3 0.1833 0.1833 0.1833);fill-opacity:1;"/>
<path d="M265.005 26.1317C264.36 26.1317 263.805 25.9939 263.339 25.7183C262.876 25.4399 262.518 25.0493 262.265 24.5464C262.015 24.0407 261.89 23.4484 261.89 22.7694C261.89 22.099 262.015 21.5081 262.265 20.9967C262.518 20.4854 262.87 20.0862 263.322 19.7993C263.776 19.5123 264.308 19.3689 264.916 19.3689C265.285 19.3689 265.643 19.43 265.989 19.5521C266.336 19.6743 266.647 19.866 266.923 20.1274C267.198 20.3888 267.416 20.7282 267.575 21.1459C267.734 21.5606 267.813 22.0649 267.813 22.6586V23.1104H262.61V22.1558H266.565C266.565 21.8206 266.497 21.5237 266.36 21.2652C266.224 21.0038 266.032 20.7979 265.785 20.6473C265.541 20.4967 265.254 20.4214 264.924 20.4214C264.566 20.4214 264.254 20.5095 263.987 20.6856C263.722 20.8589 263.518 21.0862 263.373 21.3675C263.231 21.6459 263.16 21.9484 263.16 22.2751V23.0209C263.16 23.4584 263.237 23.8305 263.39 24.1373C263.546 24.4442 263.764 24.6785 264.042 24.8405C264.32 24.9996 264.646 25.0791 265.018 25.0791C265.259 25.0791 265.479 25.045 265.678 24.9768C265.877 24.9058 266.049 24.8007 266.194 24.6615C266.339 24.5223 266.45 24.3504 266.526 24.1459L267.732 24.3632C267.636 24.7183 267.462 25.0294 267.212 25.2964C266.965 25.5606 266.654 25.7666 266.279 25.9143C265.907 26.0592 265.482 26.1317 265.005 26.1317Z" fill="#2F2F2F" style="fill:#2F2F2F;fill:color(display-p3 0.1833 0.1833 0.1833);fill-opacity:1;"/>
<path d="M268.507 25.9996V19.4541H269.739V20.4939H269.807C269.926 20.1416 270.136 19.8646 270.437 19.6629C270.741 19.4584 271.085 19.3561 271.469 19.3561C271.548 19.3561 271.642 19.3589 271.75 19.3646C271.861 19.3703 271.947 19.3774 272.01 19.3859V20.6047C271.959 20.5905 271.868 20.5748 271.737 20.5578C271.606 20.5379 271.476 20.528 271.345 20.528C271.044 20.528 270.775 20.5919 270.54 20.7197C270.307 20.8447 270.122 21.0194 269.986 21.2439C269.849 21.4655 269.781 21.7183 269.781 22.0024V25.9996H268.507Z" fill="#2F2F2F" style="fill:#2F2F2F;fill:color(display-p3 0.1833 0.1833 0.1833);fill-opacity:1;"/>
<path d="M274.951 17.2723H276.549L279.327 24.0564H279.429L282.208 17.2723H283.806V25.9996H282.553V19.6842H282.472L279.898 25.9868H278.858L276.284 19.68H276.203V25.9996H274.951V17.2723Z" fill="#2F2F2F" style="fill:#2F2F2F;fill:color(display-p3 0.1833 0.1833 0.1833);fill-opacity:1;"/>
<path d="M289.044 23.2851V19.4541H290.322V25.9996H289.07V24.866H289.001C288.851 25.2155 288.609 25.5067 288.277 25.7396C287.947 25.9697 287.537 26.0848 287.046 26.0848C286.625 26.0848 286.253 25.9925 285.929 25.8078C285.608 25.6203 285.355 25.3433 285.171 24.9768C284.989 24.6104 284.898 24.1572 284.898 23.6175V19.4541H286.172V23.464C286.172 23.9101 286.296 24.2652 286.543 24.5294C286.79 24.7936 287.111 24.9257 287.506 24.9257C287.744 24.9257 287.982 24.866 288.217 24.7467C288.456 24.6274 288.653 24.447 288.81 24.2055C288.969 23.964 289.047 23.6572 289.044 23.2851Z" fill="#2F2F2F" style="fill:#2F2F2F;fill:color(display-p3 0.1833 0.1833 0.1833);fill-opacity:1;"/>
<path d="M296.219 21.0521L295.064 21.2567C295.016 21.1089 294.939 20.9683 294.834 20.8348C294.732 20.7013 294.593 20.5919 294.417 20.5067C294.241 20.4214 294.02 20.3788 293.756 20.3788C293.395 20.3788 293.094 20.4598 292.853 20.6217C292.611 20.7808 292.491 20.9868 292.491 21.2396C292.491 21.4584 292.572 21.6345 292.734 21.768C292.895 21.9015 293.157 22.0109 293.518 22.0961L294.557 22.3348C295.16 22.474 295.609 22.6885 295.904 22.9782C296.199 23.268 296.347 23.6444 296.347 24.1075C296.347 24.4996 296.234 24.849 296.006 25.1558C295.782 25.4598 295.468 25.6984 295.064 25.8717C294.664 26.045 294.199 26.1317 293.671 26.1317C292.938 26.1317 292.34 25.9754 291.877 25.6629C291.414 25.3476 291.13 24.9001 291.025 24.3206L292.256 24.1331C292.333 24.4541 292.491 24.697 292.729 24.8618C292.968 25.0237 293.279 25.1047 293.663 25.1047C294.08 25.1047 294.414 25.018 294.664 24.8447C294.914 24.6686 295.039 24.4541 295.039 24.2013C295.039 23.9967 294.962 23.8248 294.809 23.6856C294.658 23.5464 294.427 23.4413 294.114 23.3703L293.006 23.1274C292.395 22.9882 291.944 22.7666 291.651 22.4626C291.361 22.1586 291.216 21.7737 291.216 21.3078C291.216 20.9214 291.324 20.5834 291.54 20.2936C291.756 20.0038 292.055 19.778 292.435 19.616C292.816 19.4513 293.252 19.3689 293.743 19.3689C294.451 19.3689 295.008 19.5223 295.414 19.8291C295.82 20.1331 296.089 20.5407 296.219 21.0521Z" fill="#2F2F2F" style="fill:#2F2F2F;fill:color(display-p3 0.1833 0.1833 0.1833);fill-opacity:1;"/>
<path d="M299.849 26.1317C299.204 26.1317 298.649 25.9939 298.183 25.7183C297.72 25.4399 297.362 25.0493 297.109 24.5464C296.859 24.0407 296.734 23.4484 296.734 22.7694C296.734 22.099 296.859 21.5081 297.109 20.9967C297.362 20.4854 297.714 20.0862 298.166 19.7993C298.62 19.5123 299.152 19.3689 299.76 19.3689C300.129 19.3689 300.487 19.43 300.833 19.5521C301.18 19.6743 301.491 19.866 301.767 20.1274C302.042 20.3888 302.26 20.7282 302.419 21.1459C302.578 21.5606 302.657 22.0649 302.657 22.6586V23.1104H297.454V22.1558H301.409C301.409 21.8206 301.341 21.5237 301.204 21.2652C301.068 21.0038 300.876 20.7979 300.629 20.6473C300.385 20.4967 300.098 20.4214 299.768 20.4214C299.41 20.4214 299.098 20.5095 298.831 20.6856C298.566 20.8589 298.362 21.0862 298.217 21.3675C298.075 21.6459 298.004 21.9484 298.004 22.2751V23.0209C298.004 23.4584 298.081 23.8305 298.234 24.1373C298.39 24.4442 298.608 24.6785 298.886 24.8405C299.164 24.9996 299.49 25.0791 299.862 25.0791C300.103 25.0791 300.324 25.045 300.522 24.9768C300.721 24.9058 300.893 24.8007 301.038 24.6615C301.183 24.5223 301.294 24.3504 301.37 24.1459L302.576 24.3632C302.48 24.7183 302.306 25.0294 302.056 25.2964C301.809 25.5606 301.498 25.7666 301.123 25.9143C300.751 26.0592 300.326 26.1317 299.849 26.1317Z" fill="#2F2F2F" style="fill:#2F2F2F;fill:color(display-p3 0.1833 0.1833 0.1833);fill-opacity:1;"/>
<path d="M307.497 23.2851V19.4541H308.776V25.9996H307.523V24.866H307.455C307.304 25.2155 307.063 25.5067 306.73 25.7396C306.401 25.9697 305.99 26.0848 305.499 26.0848C305.078 26.0848 304.706 25.9925 304.382 25.8078C304.061 25.6203 303.808 25.3433 303.624 24.9768C303.442 24.6104 303.351 24.1572 303.351 23.6175V19.4541H304.625V23.464C304.625 23.9101 304.749 24.2652 304.996 24.5294C305.243 24.7936 305.564 24.9257 305.959 24.9257C306.198 24.9257 306.435 24.866 306.671 24.7467C306.909 24.6274 307.107 24.447 307.263 24.2055C307.422 23.964 307.5 23.6572 307.497 23.2851Z" fill="#2F2F2F" style="fill:#2F2F2F;fill:color(display-p3 0.1833 0.1833 0.1833);fill-opacity:1;"/>
<path d="M309.768 25.9996V19.4541H310.991V20.5194H311.072C311.208 20.1586 311.431 19.8774 311.741 19.6757C312.05 19.4711 312.421 19.3689 312.853 19.3689C313.291 19.3689 313.657 19.4711 313.952 19.6757C314.251 19.8802 314.471 20.1615 314.613 20.5194H314.681C314.837 20.17 315.086 19.8916 315.427 19.6842C315.768 19.474 316.174 19.3689 316.646 19.3689C317.239 19.3689 317.724 19.555 318.099 19.9271C318.477 20.2993 318.666 20.8604 318.666 21.6104V25.9996H317.391V21.7297C317.391 21.2865 317.271 20.9655 317.029 20.7666C316.788 20.5677 316.499 20.4683 316.164 20.4683C315.749 20.4683 315.427 20.5961 315.197 20.8518C314.967 21.1047 314.852 21.43 314.852 21.8277V25.9996H313.582V21.6487C313.582 21.2936 313.471 21.0081 313.249 20.7922C313.028 20.5763 312.739 20.4683 312.384 20.4683C312.143 20.4683 311.92 20.5322 311.715 20.6601C311.514 20.7851 311.35 20.9598 311.225 21.1842C311.103 21.4086 311.042 21.6686 311.042 21.964V25.9996H309.768Z" fill="#2F2F2F" style="fill:#2F2F2F;fill:color(display-p3 0.1833 0.1833 0.1833);fill-opacity:1;"/>
<path d="M2.9563 35.9999V9.09082H7.01631V20.7847H20.4314V9.09082H24.5046V35.9999H20.4314V24.2666H7.01631V35.9999H2.9563Z" fill="#2F2F2F" style="fill:#2F2F2F;fill:color(display-p3 0.1833 0.1833 0.1833);fill-opacity:1;"/>
<path d="M35.6051 36.4466C34.3262 36.4466 33.17 36.2101 32.1364 35.7371C31.1028 35.2554 30.2837 34.559 29.6793 33.648C29.0837 32.737 28.7859 31.6202 28.7859 30.2975C28.7859 29.1588 29.0049 28.2215 29.4428 27.4857C29.8808 26.7499 30.4721 26.1674 31.2166 25.7382C31.9612 25.309 32.7933 24.9849 33.7131 24.7659C34.6328 24.5469 35.5701 24.3805 36.5249 24.2666C37.7337 24.1265 38.7147 24.0126 39.468 23.925C40.2214 23.8286 40.7688 23.6753 41.1104 23.4651C41.4521 23.2549 41.6229 22.9133 41.6229 22.4403V22.3483C41.6229 21.2008 41.2988 20.3117 40.6506 19.681C40.0111 19.0503 39.0563 18.735 37.7862 18.735C36.4635 18.735 35.4212 19.0284 34.6591 19.6153C33.9058 20.1934 33.3846 20.8373 33.0955 21.5468L29.4034 20.7059C29.8414 19.4796 30.4808 18.4897 31.3217 17.7364C32.1714 16.9743 33.1481 16.4225 34.2518 16.0809C35.3555 15.7305 36.5161 15.5553 37.7337 15.5553C38.5395 15.5553 39.3936 15.6517 40.2958 15.8444C41.2068 16.0283 42.0565 16.3699 42.8448 16.8692C43.6419 17.3685 44.2945 18.0824 44.8026 19.0109C45.3106 19.9307 45.5646 21.1263 45.5646 22.5979V35.9999H41.728V33.2407H41.5703C41.3163 33.7487 40.9353 34.248 40.4272 34.7385C39.9192 35.2291 39.2666 35.6364 38.4695 35.9605C37.6724 36.2846 36.7176 36.4466 35.6051 36.4466ZM36.4592 33.2932C37.5453 33.2932 38.4738 33.0786 39.2447 32.6494C40.0243 32.2202 40.6155 31.6596 41.0185 30.9676C41.4302 30.2668 41.636 29.5179 41.636 28.7208V26.1192C41.4959 26.2594 41.2243 26.3908 40.8214 26.5134C40.4272 26.6273 39.9761 26.728 39.468 26.8156C38.96 26.8944 38.4651 26.9689 37.9833 27.039C37.5015 27.1003 37.0986 27.1528 36.7745 27.1966C36.0124 27.293 35.3161 27.455 34.6854 27.6828C34.0635 27.9105 33.5642 28.239 33.1875 28.6682C32.8196 29.0887 32.6357 29.6493 32.6357 30.3501C32.6357 31.3224 32.9948 32.0582 33.7131 32.5574C34.4314 33.048 35.3467 33.2932 36.4592 33.2932Z" fill="#2F2F2F" style="fill:#2F2F2F;fill:color(display-p3 0.1833 0.1833 0.1833);fill-opacity:1;"/>
<path d="M50.4273 35.9999V15.8181H54.2246V19.0241H54.4348C54.8027 17.9379 55.4509 17.0838 56.3794 16.4619C57.3166 15.8312 58.3765 15.5159 59.5591 15.5159C59.8043 15.5159 60.0934 15.5247 60.4263 15.5422C60.7679 15.5597 61.035 15.5816 61.2277 15.6079V19.3657C61.0701 19.3219 60.7898 19.2737 60.3868 19.2211C59.9839 19.1598 59.581 19.1292 59.178 19.1292C58.2495 19.1292 57.4218 19.3263 56.6947 19.7204C55.9764 20.1059 55.4071 20.6446 54.9866 21.3366C54.5662 22.0198 54.3559 22.7994 54.3559 23.6753V35.9999H50.4273Z" fill="#2F2F2F" style="fill:#2F2F2F;fill:color(display-p3 0.1833 0.1833 0.1833);fill-opacity:1;"/>
<path d="M82.1367 15.8181L74.8182 35.9999H70.6136L63.2819 15.8181H67.4996L72.6108 31.3486H72.821L77.919 15.8181H82.1367Z" fill="#2F2F2F" style="fill:#2F2F2F;fill:color(display-p3 0.1833 0.1833 0.1833);fill-opacity:1;"/>
<path d="M90.7539 36.4466C89.475 36.4466 88.3188 36.2101 87.2852 35.7371C86.2515 35.2554 85.4325 34.559 84.8281 33.648C84.2325 32.737 83.9347 31.6202 83.9347 30.2975C83.9347 29.1588 84.1536 28.2215 84.5916 27.4857C85.0296 26.7499 85.6209 26.1674 86.3654 25.7382C87.11 25.309 87.9421 24.9849 88.8619 24.7659C89.7816 24.5469 90.7189 24.3805 91.6737 24.2666C92.8825 24.1265 93.8635 24.0126 94.6168 23.925C95.3701 23.8286 95.9176 23.6753 96.2592 23.4651C96.6009 23.2549 96.7717 22.9133 96.7717 22.4403V22.3483C96.7717 21.2008 96.4476 20.3117 95.7994 19.681C95.1599 19.0503 94.2051 18.735 92.935 18.735C91.6123 18.735 90.57 19.0284 89.8079 19.6153C89.0546 20.1934 88.5334 20.8373 88.2443 21.5468L84.5522 20.7059C84.9902 19.4796 85.6296 18.4897 86.4705 17.7364C87.3202 16.9743 88.2969 16.4225 89.4006 16.0809C90.5043 15.7305 91.6649 15.5553 92.8825 15.5553C93.6883 15.5553 94.5424 15.6517 95.4446 15.8444C96.3556 16.0283 97.2053 16.3699 97.9936 16.8692C98.7907 17.3685 99.4433 18.0824 99.9513 19.0109C100.459 19.9307 100.713 21.1263 100.713 22.5979V35.9999H96.8768V33.2407H96.7191C96.4651 33.7487 96.084 34.248 95.576 34.7385C95.0679 35.2291 94.4154 35.6364 93.6182 35.9605C92.8211 36.2846 91.8664 36.4466 90.7539 36.4466ZM91.608 33.2932C92.6941 33.2932 93.6226 33.0786 94.3935 32.6494C95.1731 32.2202 95.7643 31.6596 96.1673 30.9676C96.579 30.2668 96.7848 29.5179 96.7848 28.7208V26.1192C96.6446 26.2594 96.3731 26.3908 95.9702 26.5134C95.576 26.6273 95.1249 26.728 94.6168 26.8156C94.1088 26.8944 93.6139 26.9689 93.1321 27.039C92.6503 27.1003 92.2474 27.1528 91.9233 27.1966C91.1612 27.293 90.4648 27.455 89.8342 27.6828C89.2122 27.9105 88.7129 28.239 88.3363 28.6682C87.9684 29.0887 87.7844 29.6493 87.7844 30.3501C87.7844 31.3224 88.1436 32.0582 88.8619 32.5574C89.5801 33.048 90.4955 33.2932 91.608 33.2932Z" fill="#2F2F2F" style="fill:#2F2F2F;fill:color(display-p3 0.1833 0.1833 0.1833);fill-opacity:1;"/>
<path d="M105.576 35.9999V15.8181H109.373V19.0241H109.584C109.951 17.9379 110.6 17.0838 111.528 16.4619C112.465 15.8312 113.525 15.5159 114.708 15.5159C114.953 15.5159 115.242 15.5247 115.575 15.5422C115.917 15.5597 116.184 15.5816 116.377 15.6079V19.3657C116.219 19.3219 115.939 19.2737 115.536 19.2211C115.133 19.1598 114.73 19.1292 114.327 19.1292C113.398 19.1292 112.571 19.3263 111.844 19.7204C111.125 20.1059 110.556 20.6446 110.135 21.3366C109.715 22.0198 109.505 22.7994 109.505 23.6753V35.9999H105.576Z" fill="#2F2F2F" style="fill:#2F2F2F;fill:color(display-p3 0.1833 0.1833 0.1833);fill-opacity:1;"/>
<path d="M126.239 36.3941C124.609 36.3941 123.155 35.978 121.876 35.1459C120.606 34.305 119.608 33.1093 118.881 31.5589C118.162 29.9997 117.803 28.1295 117.803 25.9484C117.803 23.7673 118.167 21.9015 118.894 20.3511C119.63 18.8007 120.637 17.6138 121.916 16.7904C123.195 15.967 124.644 15.5553 126.265 15.5553C127.518 15.5553 128.525 15.7655 129.287 16.186C130.058 16.5977 130.653 17.0795 131.074 17.6313C131.503 18.1832 131.836 18.6693 132.073 19.0898H132.309V9.09082H136.238V35.9999H132.401V32.8596H132.073C131.836 33.2889 131.494 33.7794 131.048 34.3312C130.61 34.8831 130.005 35.3649 129.234 35.7765C128.464 36.1882 127.465 36.3941 126.239 36.3941ZM127.106 33.0436C128.236 33.0436 129.191 32.7458 129.97 32.1501C130.759 31.5457 131.354 30.7092 131.757 29.6405C132.169 28.5719 132.375 27.328 132.375 25.909C132.375 24.5075 132.173 23.2812 131.77 22.23C131.367 21.1789 130.776 20.3599 129.997 19.773C129.217 19.1861 128.253 18.8927 127.106 18.8927C125.923 18.8927 124.938 19.1992 124.15 19.8124C123.361 20.4256 122.766 21.2621 122.363 22.322C121.968 23.3819 121.771 24.5776 121.771 25.909C121.771 27.258 121.973 28.4711 122.376 29.5486C122.779 30.626 123.374 31.48 124.163 32.1107C124.96 32.7326 125.941 33.0436 127.106 33.0436Z" fill="#2F2F2F" style="fill:#2F2F2F;fill:color(display-p3 0.1833 0.1833 0.1833);fill-opacity:1;"/>
<path d="M5.2294 75.9999H0.919739L10.6033 49.0908H15.294L24.9776 75.9999H20.668L13.0604 53.9786H12.8501L5.2294 75.9999ZM5.95205 65.4623H19.9322V68.8785H5.95205V65.4623Z" fill="#2F2F2F" style="fill:#2F2F2F;fill:color(display-p3 0.1833 0.1833 0.1833);fill-opacity:1;"/>
<path d="M27.2532 75.9999V55.8181H31.0504V59.0241H31.2607C31.6286 57.9379 32.2768 57.0838 33.2053 56.4619C34.1425 55.8312 35.2024 55.5159 36.3849 55.5159C36.6302 55.5159 36.9193 55.5247 37.2521 55.5422C37.5938 55.5597 37.8609 55.5816 38.0536 55.6079V59.3657C37.896 59.3219 37.6157 59.2737 37.2127 59.2211C36.8098 59.1598 36.4068 59.1292 36.0039 59.1292C35.0754 59.1292 34.2476 59.3263 33.5206 59.7204C32.8023 60.1059 32.233 60.6446 31.8125 61.3366C31.3921 62.0198 31.1818 62.7994 31.1818 63.6753V75.9999H27.2532Z" fill="#2F2F2F" style="fill:#2F2F2F;fill:color(display-p3 0.1833 0.1833 0.1833);fill-opacity:1;"/>
<path d="M50.7716 55.8181V58.9715H39.7478V55.8181H50.7716ZM42.7041 50.9829H46.6327V70.0741C46.6327 70.8362 46.7466 71.41 46.9744 71.7954C47.2021 72.172 47.4955 72.4304 47.8547 72.5706C48.2226 72.702 48.6211 72.7677 49.0504 72.7677C49.3657 72.7677 49.6416 72.7458 49.8781 72.702C50.1146 72.6582 50.2986 72.6231 50.43 72.5969L51.1395 75.8422C50.9117 75.9298 50.5876 76.0174 50.1672 76.105C49.7467 76.2014 49.2212 76.2539 48.5905 76.2627C47.5569 76.2802 46.5933 76.0963 45.6999 75.7108C44.8064 75.3254 44.0837 74.7298 43.5319 73.9239C42.98 73.118 42.7041 72.1063 42.7041 70.8888V50.9829Z" fill="#2F2F2F" style="fill:#2F2F2F;fill:color(display-p3 0.1833 0.1833 0.1833);fill-opacity:1;"/>
<path d="M62.6347 49.0908H67.5619L76.1287 70.0084H76.444L85.0108 49.0908H89.938V75.9999H86.0751V56.5276H85.8254L77.8893 75.9605H74.6834L66.7473 56.5145H66.4976V75.9999H62.6347V49.0908Z" fill="#2F2F2F" style="fill:#2F2F2F;fill:color(display-p3 0.1833 0.1833 0.1833);fill-opacity:1;"/>
<path d="M107.015 67.6302V55.8181H110.957V75.9999H107.094V72.5049H106.883C106.419 73.5823 105.675 74.4801 104.65 75.1984C103.634 75.9079 102.368 76.2627 100.853 76.2627C99.5562 76.2627 98.4087 75.978 97.4101 75.4086C96.4203 74.8305 95.6407 73.9765 95.0713 72.8465C94.5107 71.7165 94.2304 70.3194 94.2304 68.6551V55.8181H98.159V68.1821C98.159 69.5573 98.5401 70.6523 99.3022 71.4669C100.064 72.2815 101.054 72.6888 102.272 72.6888C103.007 72.6888 103.739 72.5049 104.466 72.137C105.202 71.7691 105.81 71.2129 106.292 70.4683C106.783 69.7238 107.024 68.7777 107.015 67.6302Z" fill="#2F2F2F" style="fill:#2F2F2F;fill:color(display-p3 0.1833 0.1833 0.1833);fill-opacity:1;"/>
<path d="M130.064 60.7453L126.503 61.376C126.354 60.9205 126.117 60.4869 125.793 60.0752C125.478 59.6635 125.049 59.3263 124.506 59.0635C123.963 58.8007 123.284 58.6693 122.469 58.6693C121.357 58.6693 120.428 58.9189 119.684 59.4182C118.939 59.9088 118.567 60.5438 118.567 61.3234C118.567 61.9979 118.816 62.541 119.316 62.9527C119.815 63.3644 120.621 63.7016 121.733 63.9644L124.939 64.7002C126.796 65.1294 128.18 65.7907 129.091 66.6842C130.002 67.5777 130.458 68.7383 130.458 70.1661C130.458 71.3749 130.107 72.4523 129.407 73.3983C128.715 74.3356 127.747 75.0714 126.503 75.6057C125.268 76.1401 123.836 76.4072 122.206 76.4072C119.946 76.4072 118.102 75.9255 116.675 74.9619C115.247 73.9896 114.371 72.61 114.047 70.8231L117.844 70.2449C118.081 71.2348 118.567 71.9837 119.303 72.4917C120.038 72.991 120.997 73.2407 122.18 73.2407C123.468 73.2407 124.497 72.9735 125.268 72.4392C126.039 71.8961 126.424 71.2348 126.424 70.4552C126.424 69.8245 126.187 69.2945 125.714 68.8653C125.25 68.4361 124.536 68.112 123.573 67.893L120.157 67.1441C118.273 66.7149 116.881 66.0316 115.978 65.0944C115.085 64.1571 114.638 62.9702 114.638 61.5336C114.638 60.3424 114.971 59.3 115.637 58.4065C116.302 57.5131 117.222 56.8167 118.396 56.3174C119.57 55.8093 120.914 55.5553 122.43 55.5553C124.611 55.5553 126.328 56.0283 127.58 56.9743C128.833 57.9116 129.661 59.1686 130.064 60.7453Z" fill="#2F2F2F" style="fill:#2F2F2F;fill:color(display-p3 0.1833 0.1833 0.1833);fill-opacity:1;"/>
<path d="M142.18 76.4072C140.192 76.4072 138.48 75.9824 137.043 75.1327C135.615 74.2743 134.511 73.0699 133.732 71.5194C132.961 69.9603 132.576 68.1339 132.576 66.0404C132.576 63.9732 132.961 62.1512 133.732 60.5745C134.511 58.9978 135.598 57.7671 136.99 56.8824C138.392 55.9977 140.03 55.5553 141.904 55.5553C143.043 55.5553 144.147 55.7436 145.216 56.1203C146.284 56.497 147.243 57.0882 148.093 57.8941C148.943 58.7 149.613 59.7467 150.103 61.0344C150.594 62.3132 150.839 63.868 150.839 65.6988V67.0915H134.796V64.1483H146.989C146.989 63.1147 146.779 62.1994 146.359 61.4023C145.938 60.5964 145.347 59.9613 144.585 59.4971C143.832 59.0328 142.947 58.8007 141.931 58.8007C140.827 58.8007 139.864 59.0722 139.04 59.6153C138.225 60.1497 137.595 60.8504 137.148 61.7176C136.71 62.576 136.491 63.5089 136.491 64.5162V66.8156C136.491 68.1646 136.728 69.3121 137.201 70.2581C137.682 71.2041 138.352 71.9268 139.211 72.426C140.069 72.9166 141.072 73.1618 142.22 73.1618C142.964 73.1618 143.643 73.0567 144.256 72.8465C144.87 72.6275 145.399 72.3034 145.846 71.8742C146.293 71.445 146.635 70.915 146.871 70.2844L150.589 70.9545C150.292 72.0494 149.757 73.0086 148.986 73.8319C148.224 74.6466 147.265 75.2816 146.109 75.7371C144.962 76.1839 143.652 76.4072 142.18 76.4072Z" fill="#2F2F2F" style="fill:#2F2F2F;fill:color(display-p3 0.1833 0.1833 0.1833);fill-opacity:1;"/>
<path d="M166.688 67.6302V55.8181H170.629V75.9999H166.766V72.5049H166.556C166.092 73.5823 165.347 74.4801 164.322 75.1984C163.306 75.9079 162.041 76.2627 160.525 76.2627C159.229 76.2627 158.081 75.978 157.083 75.4086C156.093 74.8305 155.313 73.9765 154.744 72.8465C154.183 71.7165 153.903 70.3194 153.903 68.6551V55.8181H157.832V68.1821C157.832 69.5573 158.213 70.6523 158.975 71.4669C159.737 72.2815 160.727 72.6888 161.944 72.6888C162.68 72.6888 163.411 72.5049 164.138 72.137C164.874 71.7691 165.483 71.2129 165.965 70.4683C166.455 69.7238 166.696 68.7777 166.688 67.6302Z" fill="#2F2F2F" style="fill:#2F2F2F;fill:color(display-p3 0.1833 0.1833 0.1833);fill-opacity:1;"/>
<path d="M174.613 75.9999V55.8181H178.384V59.1029H178.634C179.054 57.9904 179.742 57.1233 180.696 56.5013C181.651 55.8707 182.794 55.5553 184.126 55.5553C185.475 55.5553 186.605 55.8707 187.516 56.5013C188.435 57.132 189.114 57.9992 189.552 59.1029H189.762C190.244 58.0255 191.011 57.1671 192.062 56.5276C193.113 55.8794 194.366 55.5553 195.82 55.5553C197.65 55.5553 199.144 56.1291 200.3 57.2765C201.465 58.424 202.048 60.154 202.048 62.4665V75.9999H198.119V62.8344C198.119 61.468 197.747 60.4781 197.002 59.865C196.258 59.2518 195.368 58.9452 194.335 58.9452C193.056 58.9452 192.062 59.3394 191.352 60.1278C190.643 60.9073 190.288 61.9103 190.288 63.1366V75.9999H186.373V62.5848C186.373 61.4898 186.031 60.6095 185.348 59.9438C184.664 59.2781 183.775 58.9452 182.68 58.9452C181.936 58.9452 181.248 59.1423 180.618 59.5365C179.996 59.9219 179.492 60.4606 179.107 61.1526C178.73 61.8446 178.542 62.6461 178.542 63.5571V75.9999H174.613Z" fill="#2F2F2F" style="fill:#2F2F2F;fill:color(display-p3 0.1833 0.1833 0.1833);fill-opacity:1;"/>
<path d="M221.141 60.7453L217.581 61.376C217.432 60.9205 217.195 60.4869 216.871 60.0752C216.556 59.6635 216.127 59.3263 215.583 59.0635C215.04 58.8007 214.362 58.6693 213.547 58.6693C212.434 58.6693 211.506 58.9189 210.761 59.4182C210.017 59.9088 209.645 60.5438 209.645 61.3234C209.645 61.9979 209.894 62.541 210.393 62.9527C210.893 63.3644 211.699 63.7016 212.811 63.9644L216.017 64.7002C217.874 65.1294 219.258 65.7907 220.169 66.6842C221.08 67.5777 221.536 68.7383 221.536 70.1661C221.536 71.3749 221.185 72.4523 220.484 73.3983C219.792 74.3356 218.824 75.0714 217.581 75.6057C216.346 76.1401 214.913 76.4072 213.284 76.4072C211.024 76.4072 209.18 75.9255 207.753 74.9619C206.325 73.9896 205.449 72.61 205.125 70.8231L208.922 70.2449C209.158 71.2348 209.645 71.9837 210.38 72.4917C211.116 72.991 212.075 73.2407 213.258 73.2407C214.545 73.2407 215.575 72.9735 216.346 72.4392C217.116 71.8961 217.502 71.2348 217.502 70.4552C217.502 69.8245 217.265 69.2945 216.792 68.8653C216.328 68.4361 215.614 68.112 214.651 67.893L211.234 67.1441C209.351 66.7149 207.958 66.0316 207.056 65.0944C206.163 64.1571 205.716 62.9702 205.716 61.5336C205.716 60.3424 206.049 59.3 206.715 58.4065C207.38 57.5131 208.3 56.8167 209.474 56.3174C210.648 55.8093 211.992 55.5553 213.507 55.5553C215.689 55.5553 217.405 56.0283 218.658 56.9743C219.911 57.9116 220.738 59.1686 221.141 60.7453Z" fill="#2F2F2F" style="fill:#2F2F2F;fill:color(display-p3 0.1833 0.1833 0.1833);fill-opacity:1;"/>
</svg>
