<svg width="25" height="25" viewBox="0 0 25 25" fill="none" xmlns="http://www.w3.org/2000/svg">
<path d="M15 2.49952C15 2.35208 14.9609 2.20727 14.8867 2.07987C14.8125 1.95247 14.7058 1.84704 14.5775 1.77434C14.4493 1.70165 14.304 1.66429 14.1566 1.66608C14.0091 1.66787 13.8648 1.70874 13.7383 1.78452L5.60333 6.66286H2.5C1.11833 6.66286 0 7.77952 0 9.16286V15.8329C0 17.2145 1.11667 18.3329 2.5 18.3329H5.60333L13.7367 23.2145C13.8632 23.2907 14.0077 23.332 14.1554 23.334C14.303 23.336 14.4486 23.2987 14.5771 23.2259C14.7057 23.1532 14.8126 23.0476 14.8869 22.92C14.9612 22.7923 15.0002 22.6472 15 22.4995V2.49952ZM22.0117 12.4929L24.3683 14.8479L23.19 16.0262L20.8333 13.6712L18.4767 16.0262L17.2983 14.8479L19.655 12.4929L17.2983 10.1379L18.4767 8.95952L20.8333 11.3145L23.1917 8.95952L24.3683 10.1379L22.0117 12.4929Z" fill="#B05595" style="fill:#B05595;fill:color(display-p3 0.6902 0.3333 0.5843);fill-opacity:1;"/>
</svg>
